<?xml version="1.0" encoding="UTF-8"?>
<svg width="48px" height="48px" viewBox="0 0 48 48" version="1.1" xmlns="http://www.w3.org/2000/svg" xmlns:xlink="http://www.w3.org/1999/xlink">
    <!-- Generator: Sketch 61 (89581) - https://sketch.com -->
    <title>CC</title>
    <desc>Created with Sketch.</desc>
    <g id="CC" stroke="none" stroke-width="1" fill="none" fill-rule="evenodd">
        <g id="logos/favicon/favicon-credit-cooperatif" transform="translate(0.000000, 3.000000)" fill-rule="nonzero">
            <path d="M47.3950387,17.9439731 C47.6810218,19.3936538 48.0303328,22.0485782 46.650837,24.7095529 C45.9969882,26.0172504 45.0164168,27.2652504 43.8135933,28.3240739 C43.2210555,28.8653849 42.570837,29.3562756 41.8952067,29.8233681 C41.5604168,30.0629647 41.1021983,30.5663597 41.1021983,30.5663597 L41.1251899,31.1859227 C41.1695597,32.837284 41.1356773,34.5120403 40.9424672,36.1629983 C40.7734588,37.7921748 40.3277445,39.5121076 39.3245849,40.8189983 C39.0781311,41.1513681 38.7723832,41.4768807 38.3274756,41.6906622 C37.8853916,41.9322756 37.2315429,41.832242 36.877795,41.5240739 C36.2304,40.8758723 35.9476437,40.3882084 35.4922487,39.845284 C34.6730218,38.7985613 33.9304336,37.8446118 33.2943328,37.0213513 C32.799005,36.3904941 32.3335261,35.7975529 31.8966857,35.2397042 C31.6776605,34.9605782 31.4667025,34.6907294 31.2621983,34.4293513 L31.0891563,34.2079059 C31.1194084,34.2204101 31.2154084,34.2107294 31.2154084,34.2099227 C31.8543328,35.0339899 32.4997109,35.9915697 33.2943328,37.0213513 C34.0478118,37.9789311 34.8706689,39.0232336 35.7677445,40.1599059 L36.4542655,41.0303597 C36.6494924,41.3256202 37.0786689,41.765284 37.6494252,41.7967462 C38.8486185,41.7314017 39.3217613,40.7709983 39.7775597,40.0667294 C39.4770555,40.5354353 39.1648538,41.006158 38.6788034,41.3760403 C38.2395429,41.7959395 37.3210891,41.8483765 36.8858622,41.366763 C36.1715092,40.5039731 35.6604504,39.7351664 35.0711395,38.9582924 C34.3688874,38.0043429 33.7057613,37.1020235 33.0987025,36.273116 L36.820921,40.8912 C36.820921,40.8912 38.0741647,42.8216874 39.7174588,39.2821916 C40.7456269,37.0661244 40.6927866,32.462158 40.5112739,30.0480403 C44.7647193,27.3963429 47.3385681,23.9359059 46.7557109,19.5679059 C46.8609882,19.0806454 46.9323832,18.374763 46.813795,17.304242 C46.7774924,16.7984269 46.1789042,15.3773849 45.7061647,14.5617882 C45.6747025,14.5000739 45.642837,14.4419899 45.6109714,14.3839059 C45.5036773,14.1031664 45.3988034,13.8470319 45.3019966,13.6352672 C45.1991395,13.3170151 45.6521143,13.9377882 45.9203496,14.1765782 C45.0628034,12.5090824 45.0337613,12.3642756 45.571442,12.9693176 C45.3475765,12.5744269 45.1212908,12.1811496 45.1124168,12.1855866 C45.2213244,12.2509311 45.5004504,12.4776202 45.5032739,12.4772168 C44.308921,10.329721 42.2425008,8.26773782 39.7279462,7.22061176 C39.6343664,7.18108235 39.5391731,7.14477983 39.4451899,7.10686387 C39.5706353,6.81281345 39.6795429,6.56030924 39.7989378,6.33039328 C40.0409546,5.88024202 40.410837,5.07190588 40.5439462,4.43136807 C40.6750387,3.83277983 40.8577613,3.05550252 40.5951731,1.91035966 C40.4665008,1.34726723 39.951005,0.453821849 39.0644168,0.149687395 C38.1830723,-0.149606723 37.6566857,0.0750655462 37.248484,0.17832605 C36.8487529,0.312242017 36.3389042,0.548208403 35.9137613,0.795065546 C35.4507025,1.04353613 34.959005,1.46061176 34.746837,1.72400672 C34.1458286,2.78565378 34.4463328,2.74773782 34.3983328,3.22168739 C34.065963,4.28615798 34.3229042,5.48857815 34.7867697,6.51029244 C33.3003832,6.40622521 32.2379294,6.49778824 32.3339294,6.68091429 C29.6193076,6.7277042 29.0836437,6.98988908 26.3399798,7.5437042 C24.5296941,7.96198992 22.5149042,8.60777143 20.511005,9.62746891 C20.2601143,9.75775462 20.010837,9.89126723 19.7555092,10.0437378 L19.6562824,10.1038387 L19.6272403,10.1219899 L19.6232067,10.1244101 C19.5748034,11.4494521 19.9313748,10.8746622 20.1782319,11.4784941 L20.183879,11.4776874 L20.1947697,11.4752672 L20.2423664,11.4651832 L20.4375933,11.4244437 L20.8345008,11.3461916 C21.3685513,11.2441412 21.9106689,11.1505613 22.4576269,11.0634353 C23.5511395,10.8895866 24.6624,10.7455866 25.7720471,10.6314353 C28.1946353,10.3672336 30.5442151,10.2845445 32.8917782,10.4075697 C33.0853916,10.4172504 33.2592403,10.4281412 33.4468034,10.4406454 C33.4524504,10.7008134 33.4605176,10.958158 33.4722151,11.2106622 C33.5916101,13.4864269 33.8247529,15.6916034 34.4894924,17.8185277 C34.6617277,18.3489479 34.8682487,18.873721 35.140921,19.3831664 C35.4156101,19.8050824 35.7637109,20.7025613 36.9681479,20.6690824 C37.9914756,20.4573176 38.2903664,19.7135193 38.553358,19.3452504 L39.3810555,18.0589311 C40.3967193,16.4293513 41.3990723,14.8756034 42.2618622,13.1419563 C42.4954084,13.3149983 42.7136269,13.5033681 42.9193412,13.7014185 C43.2182319,14.1067966 43.4961479,14.5331496 43.7486521,14.9820908 C43.8438454,15.038158 43.9479126,15.1079395 44.0947361,15.2910655 C44.3008538,15.7097546 44.5352067,16.1139227 44.7183328,16.5515697 C45.8509714,19.8139563 43.7296941,23.1771832 40.861795,25.4218891 C39.6682487,26.399637 38.346837,27.2749311 36.9419294,28.0760067 C37.3626353,27.0639731 37.4876773,25.7373176 37.1617613,24.642595 C36.8455261,23.5091496 36.2546017,22.1619227 34.7601479,21.7085445 C33.1894588,21.3915025 32.1019966,22.4317714 31.3368202,23.2546286 C30.503879,24.0988639 29.9625681,25.6276034 30.5595429,26.8598723 C31.0919798,28.0526118 32.0531899,28.8246454 33.0139966,29.4607462 C33.2580303,29.6188639 33.5081143,29.7664941 33.7646521,29.9040403 C33.796921,29.9185613 33.8223328,29.9322756 33.8461311,29.9443765 C32.7937613,30.335637 31.8906353,30.7067294 30.8471395,30.8975193 C28.7424,31.3307294 26.5513412,31.2214185 24.4643496,30.773284 C22.3749378,30.3227294 20.3625681,29.5422252 18.5361479,28.5297882 C18.5361479,28.5297882 18.0291227,28.1022252 17.5584,28.9077378 L17.7536269,29.1320067 C17.9399798,29.3385277 18.1327866,29.534158 18.3292235,29.7245445 C18.7225008,30.1045109 19.1343328,30.4610824 19.5590723,30.7946622 C20.4121815,31.459805 21.3197445,32.0454857 22.2712739,32.5287126 C24.1698958,33.5024269 26.2403496,34.0784269 28.2991059,34.2167798 C28.8133916,34.2550992 29.3264672,34.2676034 29.8355092,34.2506622 C30.090837,34.2462252 30.3445513,34.2357378 30.5966521,34.2127462 L30.7341983,34.2022588 L30.7495261,34.2212168 C31.3529546,34.9876034 31.9475092,35.7443092 32.5339966,36.4917378 C33.7073748,37.9853849 34.8468706,39.4407126 35.9476437,40.8488471 L36.3562487,41.3760403 C36.5603496,41.6265277 36.810837,41.8439395 37.1581311,41.9814857 C37.9031395,42.2884437 38.6953412,41.8866958 39.0527193,41.5256874 C39.8340303,40.7463933 40.2035092,39.9824269 40.5802487,39.1103597 C41.1909378,37.377116 41.3095261,35.7443092 41.4111731,34.1933849 C41.4511059,33.4185277 41.4660303,32.6650487 41.4619966,31.9317378 L41.4418286,30.8470992 L41.4273076,30.5381244 C41.4273076,30.5381244 45.4556773,27.4923429 46.5576605,25.6074353 C47.6862655,23.7330151 47.9629714,21.8973176 47.9472403,20.6888471 C47.9016605,19.7324773 47.6620639,18.8216874 47.3950387,17.9439731" id="Fill-23" fill="#636362"></path>
            <polygon id="Fill-24" fill="#636362" points="30.8895328 33.9124034 30.8709782 33.8877983 30.8415328 33.8902185 30.8604908 33.9144202"></polygon>
            <path d="M1.48473277,24.6971294 L1.48473277,24.6975328 L1.48473277,24.6971294 Z M2.19222857,10.1519193 C2.33259832,10.3632807 2.51209412,10.603684 2.74564034,10.8658689 C2.55525378,10.5560874 2.40399328,10.2434824 2.30395966,9.98371765 C2.99895126,10.9227429 4.10819496,11.7685916 4.91411092,12.0719193 L4.91895126,12.0739361 C4.88748908,12.119516 4.86288403,12.1679193 4.85723697,12.2223731 C4.85643025,12.2857008 5.13071597,12.4111462 5.21743866,12.5595832 C5.23437983,12.6019361 5.13999328,12.6418689 5.08190924,12.7035832 C5.24567395,12.7689277 5.22389244,12.8524235 5.12990924,12.8927597 C5.16540504,12.9141378 5.20211092,12.935516 5.20211092,12.935516 C5.18274958,12.9564908 5.12426218,13.018205 5.12426218,13.018205 C5.50342185,13.2703059 5.89347227,13.6567261 6.47552269,13.7168269 C6.50093445,13.7208605 6.53078319,13.723684 6.56426218,13.7248941 C6.20607731,14.0193479 6.10201008,14.2290958 5.62402689,14.6280202 C4.86167395,15.283079 3.92990924,16.1648269 3.12157311,17.1413647 C2.68836303,17.6818689 2.29145546,18.2191462 1.93085042,18.791516 C1.79370756,19.0032807 1.67794286,19.2210958 1.56137143,19.4235832 C0.961573109,20.5404908 0.552968067,21.6820034 0.391220168,22.8388437 C0.309337815,23.4164571 0.289573109,23.9952807 0.356531092,24.580558 L0.390413445,24.8040202 L0.413001681,24.9201882 C0.417842017,24.9431798 0.420665546,24.9577008 0.428732773,24.9883563 L0.432363025,24.9988437 C1.05192605,24.7015664 0.936564706,25.0464403 1.34274958,25.085163 L1.3435563,25.0835496 L1.34920336,25.0742723 L1.35888403,25.0557176 L1.54846387,24.7273815 L1.95908571,24.0751462 C3.01508571,22.4721882 4.21750588,20.9741042 5.66758992,19.3868773 L5.71760672,19.5018353 L6.08143866,20.3335664 C6.31256471,20.884558 6.57999328,21.4597513 6.77078319,21.9978353 C6.98214454,22.5867429 7.22537143,23.1603227 7.56298487,23.7024403 C7.87639664,24.1776 8.40076639,24.9262387 9.27565714,24.7076168 C10.6091697,23.9928605 10.8285983,22.712995 11.2952874,21.6775664 C11.6651697,20.5804235 11.8946824,19.4796504 12.0112538,18.4264739 C12.1290353,17.3728941 12.1483966,16.3685244 12.1072538,15.4399866 C12.1072538,15.4399866 12.0124639,14.8087261 12.0709513,14.6929613 C12.0709513,14.6929613 12.6731697,14.4356168 13.0079597,14.2984739 C14.3374387,13.7345748 15.3668168,13.4159193 15.9178084,13.2517513 C16.1178756,13.1440538 16.3183462,13.0359529 16.5244639,12.9407597 C15.7701782,13.0331294 14.174884,13.5103059 12.5824134,14.251684 L11.9882622,14.5404908 L11.8648336,14.6768269 C11.9116235,15.1257681 11.9366319,15.5682555 11.9487328,15.9913815 C11.9721277,16.8348101 11.9293714,17.597163 11.8612034,18.1679193 C11.9249345,17.4983395 11.9067832,16.775516 11.865237,15.8393143 C11.8386151,16.7827765 11.7821445,17.6068437 11.6450017,18.3256336 C11.7781109,16.6448269 11.6280605,15.2052303 11.5098756,14.4150454 C13.7122286,13.1972975 16.2788168,12.1852639 19.2406992,11.6213647 C19.2406992,11.6213647 18.1790521,11.0465748 16.3288336,10.9429109 C16.3703798,10.8864403 16.3869176,10.8299697 16.3542454,10.7726924 C16.3010017,10.694037 15.4555563,10.6573311 15.0655059,10.5802891 C14.9735395,10.5508437 15.1760269,10.4612975 15.2623462,10.3713479 C14.7537076,10.3999866 14.7141782,10.3164908 14.9202958,10.2221042 C14.7976739,10.2217008 14.6762622,10.2305748 14.6762622,10.2293647 C14.7032874,10.1979025 14.7875899,10.1051294 14.7875899,10.1051294 C13.4649681,10.0966588 11.9463126,10.2854319 10.7874555,10.8610286 C10.5369681,10.9767933 10.1404639,11.2115496 9.88795966,11.3813647 C9.75848067,11.4596168 9.44063193,11.5644908 9.33051429,11.6145076 C9.17643025,11.7798857 9.24661513,11.8468437 9.20708571,11.962205 C9.0642958,12.0158521 8.89811092,12.0880538 8.72063193,12.1711462 C8.73313613,12.0279529 8.69562353,11.9182387 8.73878319,11.7189782 C8.73192605,11.0562555 8.62301849,10.7815664 8.5185479,10.2580034 C8.44352269,10.0087261 8.38624538,9.76630588 8.31001008,9.52428908 L8.21965714,9.26492773 C7.88648067,8.38075966 7.48392605,7.5998521 6.81192605,7.00449076 C6.15001008,6.40590252 5.17548908,6.1118521 4.22799328,6.29336471 C3.3115563,6.50190252 2.32090084,6.69430588 1.6618084,7.54136471 C1.06483361,8.51467563 1.62348908,9.52872605 2.01111933,10.1704739 C2.89407731,11.5342387 3.93636303,12.3332975 4.39498487,12.5829782 L4.71081681,12.6108101 C4.11827899,12.2026084 2.59801008,10.9606588 2.19222857,10.1519193 L2.19222857,10.1519193 Z" id="Fill-25" fill="#C41B1C"></path>
        </g>
    </g>
</svg>